<?xml version="1.0" encoding="UTF-8" standalone="no"?>
<svg
   xmlns:dc="http://purl.org/dc/elements/1.1/"
   xmlns:cc="http://creativecommons.org/ns#"
   xmlns:rdf="http://www.w3.org/1999/02/22-rdf-syntax-ns#"
   xmlns:svg="http://www.w3.org/2000/svg"
   xmlns="http://www.w3.org/2000/svg"
   viewBox="0 0 75 35.692749"
   height="35.692749"
   width="75"
   xml:space="preserve"
   version="1.1"
   id="svg2"><metadata
     id="metadata8"><rdf:RDF><cc:Work
         rdf:about=""><dc:format>image/svg+xml</dc:format><dc:type
           rdf:resource="http://purl.org/dc/dcmitype/StillImage" /></cc:Work></rdf:RDF></metadata><defs
     id="defs6"><clipPath
       id="clipPath16"
       clipPathUnits="userSpaceOnUse"><path
         id="path18"
         d="m 0,28.554 60,0 L 60,0 0,0 0,28.554 Z" /></clipPath></defs><g
     transform="matrix(1.25,0,0,-1.25,0,35.69275)"
     id="g10"><g
       id="g12"><g
         clip-path="url(#clipPath16)"
         id="g14"><g
           transform="translate(19.5264,22.1172)"
           id="g20"><path
             id="path22"
             style="fill:#ffffff;fill-opacity:1;fill-rule:nonzero;stroke:none"
             d="m 0,0 c -5.311,0 -9.631,-4.315 -9.631,-9.62 l 0,-0.419 c 0,-5.305 4.32,-9.621 9.631,-9.621 l 29.828,0 c 5.312,0 9.632,4.316 9.632,9.621 l 0,0.419 C 39.46,-4.315 35.14,0 29.828,0 L 0,0 Z" /></g><g
           transform="translate(19.5264,22.1172)"
           id="g24"><path
             id="path26"
             style="fill:#bbbbb9;fill-opacity:1;fill-rule:nonzero;stroke:none"
             d="m 0,0 c -5.311,0 -9.631,-4.315 -9.631,-9.62 l 0,-0.419 c 0,-5.305 4.32,-9.621 9.631,-9.621 l 29.828,0 c 5.312,0 9.632,4.316 9.632,9.621 l 0,0.419 C 39.46,-4.315 35.14,0 29.828,0 L 0,0 Z m 29.828,-20.672 -29.828,0 c -5.87,0 -10.645,4.77 -10.645,10.633 l 0,0.419 c 0,5.863 4.775,10.633 10.645,10.633 l 29.828,0 c 5.87,0 10.646,-4.77 10.646,-10.633 l 0,-0.419 c 0,-5.863 -4.776,-10.633 -10.646,-10.633" /></g><g
           transform="translate(12.6431,21.9307)"
           id="g28"><path
             id="path30"
             style="fill:#ffffff;fill-opacity:1;fill-rule:nonzero;stroke:none"
             d="m 0,0 c 5.138,0 9.311,-4.169 9.311,-9.301 0,-5.132 -4.173,-9.3 -9.311,-9.3 -5.137,0 -9.272,4.168 -9.272,9.3 C -9.272,-4.169 -5.137,0 0,0" /></g><path
           id="path32"
           style="fill:#f9ae0c;fill-opacity:1;fill-rule:nonzero;stroke:none"
           d="m 24.153,25.04 0.879,0 0,0.878 -0.879,0 0,-0.878 z m 2.639,0.878 0.879,0 0,0.879 -0.879,0 0,-0.879 z m 0,1.757 0.879,0 0,0.879 -0.879,0 0,-0.879 z" /><g
           transform="translate(12.6445,21.2329)"
           id="g34"><path
             id="path36"
             style="fill:#f9ae0c;fill-opacity:1;fill-rule:nonzero;stroke:none"
             d="m 0,0 c 4.753,0 8.612,-3.856 8.612,-8.603 0,-4.747 -3.859,-8.603 -8.612,-8.603 -4.752,0 -8.577,3.856 -8.577,8.603 C -8.577,-3.856 -4.752,0 0,0 m 0,4.026 c -6.985,0 -12.645,-5.652 -12.645,-12.629 0,-6.974 5.66,-12.63 12.645,-12.63 6.985,0 12.644,5.656 12.644,12.63 C 12.644,-1.626 6.985,4.026 0,4.026" /></g><g
           transform="translate(16.2368,18.8906)"
           id="g38"><path
             id="path40"
             style="fill:#110f0d;fill-opacity:1;fill-rule:nonzero;stroke:none"
             d="m 0,0 c -2.297,-2.866 -2.875,-4.124 -3.791,-6.442 -1.037,2.095 -2.275,3.544 -4.419,4.502 -0.406,0.103 -0.606,0.162 -0.88,-0.221 -0.274,-0.382 -0.107,-0.728 0.22,-1.134 0.859,-1.065 1.823,-2.05 2.492,-3.258 0.784,-1.416 1.76,-3.75 2.089,-4.355 0.262,-0.485 0.894,-0.697 1.137,-0.697 1.297,0.152 1.298,0.812 1.545,1.953 0.401,1.875 0.92,3.809 3.366,6.137 L 1.759,0 0,0 Z" /></g><path
           id="path42"
           style="fill:#110f0d;fill-opacity:1;fill-rule:nonzero;stroke:none"
           d="m 22.393,25.04 -0.879,0 0,-0.879 0.879,0 0,0.879 z m 0,-1.756 0.88,0 0,0.877 -0.88,0 0,-0.877 z m 1.76,0 -0.88,0 0,-0.879 -0.88,0 0,0.879 -1.759,0 0,-0.879 -0.88,0 0,-0.879 0.88,0 0,-0.878 -0.88,0 0,0.878 -0.879,0 0,-0.878 -0.879,0 0,-0.879 -0.88,0 0,-3.515 1.759,0 0,0.88 0.879,0 0,0.878 0.88,0 0,0.879 -0.88,0 0,0.878 0.88,0 0,-0.878 0.88,0 0,0.878 0.879,0 0,0.879 0.88,0 0,0.878 0.88,0 0,1.758 z m 0.879,0.877 0.881,0 0,0.879 -0.881,0 0,-0.879 z m -0.879,-0.877 0.879,0 0,0.877 -0.879,0 0,-0.877 z m 0,2.634 -0.88,0 0,-1.757 0.88,0 0,1.757 z m 1.761,0.879 -1.76,0 0,-0.879 1.76,0 0,0.879 z m 0,0 0.879,0 0,0.878 -0.879,0 0,-0.878 z" /><g
           transform="translate(28.8667,13.498)"
           id="g44"><path
             id="path46"
             style="fill:#110f0d;fill-opacity:1;fill-rule:nonzero;stroke:none"
             d="m 0,0 -1.793,5.011 1.098,0 1.27,-3.709 1.229,3.709 1.073,0 L 1.081,0 0,0 Z" /></g><g
           transform="translate(34.0264,15.624)"
           id="g48"><path
             id="path50"
             style="fill:#110f0d;fill-opacity:1;fill-rule:nonzero;stroke:none"
             d="m 0,0 c -0.007,0.277 -0.078,0.489 -0.215,0.633 -0.138,0.146 -0.304,0.218 -0.5,0.218 -0.21,0 -0.383,-0.076 -0.52,-0.229 C -1.372,0.47 -1.439,0.262 -1.437,0 L 0,0 Z m -0.055,-0.971 0.958,-0.16 C 0.781,-1.482 0.586,-1.75 0.32,-1.933 0.055,-2.116 -0.278,-2.208 -0.678,-2.208 c -0.631,0 -1.099,0.207 -1.402,0.619 -0.239,0.33 -0.359,0.747 -0.359,1.251 0,0.601 0.157,1.072 0.472,1.413 0.315,0.341 0.712,0.511 1.194,0.511 0.541,0 0.966,-0.178 1.28,-0.535 0.312,-0.357 0.462,-0.903 0.448,-1.639 l -2.409,0 c 0.007,-0.286 0.084,-0.507 0.232,-0.665 0.149,-0.158 0.333,-0.238 0.555,-0.238 0.15,0 0.276,0.041 0.38,0.123 0.102,0.082 0.18,0.215 0.232,0.397" /></g><g
           transform="translate(36.6865,13.498)"
           id="g52"><path
             id="path54"
             style="fill:#110f0d;fill-opacity:1;fill-rule:nonzero;stroke:none"
             d="m 0,0 -0.962,0 0,3.629 0.894,0 0,-0.516 c 0.152,0.245 0.29,0.405 0.411,0.483 0.123,0.077 0.261,0.116 0.416,0.116 0.22,0 0.43,-0.061 0.634,-0.181 L 1.095,2.693 C 0.934,2.798 0.782,2.851 0.644,2.851 0.509,2.851 0.395,2.813 0.301,2.74 0.208,2.666 0.134,2.531 0.08,2.337 0.026,2.145 0,1.738 0,1.121 L 0,0 Z" /></g><path
           id="path56"
           style="fill:#110f0d;fill-opacity:1;fill-rule:nonzero;stroke:none"
           d="m 38.493,17.127 0.962,0 0,-3.629 -0.962,0 0,3.629 z m 0,1.382 0.962,0 0,-0.889 -0.962,0 0,0.889 z" /><g
           transform="translate(40.1016,14.5332)"
           id="g58"><path
             id="path60"
             style="fill:#110f0d;fill-opacity:1;fill-rule:nonzero;stroke:none"
             d="m 0,0 0.965,0.147 c 0.041,-0.187 0.124,-0.328 0.25,-0.425 0.126,-0.097 0.301,-0.145 0.526,-0.145 0.25,0 0.437,0.045 0.562,0.136 0.085,0.064 0.127,0.15 0.127,0.257 0,0.072 -0.024,0.133 -0.069,0.181 C 2.313,0.197 2.206,0.238 2.039,0.277 1.265,0.448 0.772,0.604 0.564,0.746 0.277,0.941 0.134,1.214 0.134,1.562 0.134,1.877 0.258,2.141 0.507,2.355 0.755,2.57 1.141,2.677 1.663,2.677 2.16,2.677 2.53,2.595 2.771,2.435 3.014,2.272 3.18,2.033 3.271,1.716 L 2.365,1.548 C 2.325,1.689 2.252,1.798 2.145,1.874 2.035,1.949 1.881,1.987 1.68,1.987 1.427,1.987 1.245,1.951 1.137,1.881 1.063,1.83 1.026,1.765 1.026,1.686 1.026,1.617 1.059,1.56 1.123,1.511 1.209,1.448 1.509,1.357 2.021,1.241 2.532,1.125 2.891,0.983 3.094,0.814 3.295,0.643 3.395,0.405 3.395,0.1 c 0,-0.333 -0.14,-0.619 -0.418,-0.859 -0.279,-0.239 -0.69,-0.359 -1.236,-0.359 -0.495,0 -0.886,0.1 -1.175,0.301 C 0.277,-0.616 0.089,-0.344 0,0" /></g><path
           id="path62"
           style="fill:#110f0d;fill-opacity:1;fill-rule:nonzero;stroke:none"
           d="m 44.338,17.127 0.962,0 0,-3.629 -0.962,0 0,3.629 z m 0,1.382 0.962,0 0,-0.889 -0.962,0 0,0.889 z" /><g
           transform="translate(47.0547,15.3882)"
           id="g64"><path
             id="path66"
             style="fill:#110f0d;fill-opacity:1;fill-rule:nonzero;stroke:none"
             d="m 0,0 c 0,-0.386 0.074,-0.667 0.224,-0.846 0.15,-0.179 0.334,-0.268 0.553,-0.268 0.235,0 0.433,0.091 0.595,0.275 0.163,0.183 0.244,0.455 0.244,0.814 0,0.378 -0.078,0.656 -0.233,0.838 C 1.228,0.996 1.032,1.087 0.794,1.087 0.563,1.087 0.374,0.997 0.224,0.819 0.074,0.64 0,0.367 0,0 M -0.859,-2.129 0.24,-2.263 c 0.018,-0.127 0.061,-0.216 0.126,-0.263 0.092,-0.068 0.236,-0.102 0.431,-0.102 0.252,0 0.439,0.037 0.565,0.112 0.084,0.05 0.149,0.132 0.192,0.243 0.029,0.08 0.044,0.226 0.044,0.441 l 0,0.53 C 1.312,-1.694 0.947,-1.89 0.51,-1.89 c -0.488,0 -0.875,0.206 -1.16,0.619 -0.224,0.325 -0.335,0.73 -0.335,1.216 0,0.609 0.146,1.074 0.44,1.395 0.293,0.321 0.657,0.482 1.093,0.482 0.449,0 0.819,-0.197 1.111,-0.592 l 0,0.509 0.902,0 0,-3.257 C 2.561,-1.946 2.524,-2.266 2.453,-2.479 2.383,-2.69 2.284,-2.857 2.156,-2.976 2.028,-3.097 1.857,-3.193 1.645,-3.261 1.431,-3.329 1.161,-3.363 0.835,-3.363 c -0.616,0 -1.053,0.106 -1.311,0.317 -0.257,0.209 -0.386,0.476 -0.386,0.8 0,0.033 0.001,0.071 0.003,0.117" /></g><g
           transform="translate(53.8711,13.498)"
           id="g68"><path
             id="path70"
             style="fill:#110f0d;fill-opacity:1;fill-rule:nonzero;stroke:none"
             d="m 0,0 -0.962,0 0,1.853 c 0,0.392 -0.02,0.645 -0.06,0.76 -0.042,0.115 -0.109,0.205 -0.201,0.268 -0.092,0.064 -0.204,0.096 -0.334,0.096 -0.167,0 -0.316,-0.045 -0.448,-0.136 C -2.138,2.749 -2.229,2.628 -2.277,2.478 -2.326,2.327 -2.351,2.05 -2.351,1.644 l 0,-1.644 -0.962,0 0,3.629 0.893,0 0,-0.532 c 0.318,0.41 0.717,0.615 1.198,0.615 0.213,0 0.408,-0.039 0.582,-0.115 C -0.465,3.521 -0.331,3.424 -0.241,3.305 -0.15,3.187 -0.088,3.052 -0.053,2.902 -0.017,2.751 0,2.536 0,2.255 L 0,0 Z" /></g><g
           transform="translate(29.1792,6.4102)"
           id="g72"><path
             id="path74"
             style="fill:#110f0d;fill-opacity:1;fill-rule:nonzero;stroke:none"
             d="m 0,0 0,5.113 -1.913,0 0,0.686 4.602,0 0,-0.686 -1.92,0 L 0.769,0 0,0 Z" /></g><g
           transform="translate(32.2559,6.4102)"
           id="g76"><path
             id="path78"
             style="fill:#110f0d;fill-opacity:1;fill-rule:nonzero;stroke:none"
             d="m 0,0 0,4.201 0.642,0 0,-0.638 c 0.163,0.298 0.315,0.496 0.453,0.591 0.138,0.094 0.291,0.141 0.458,0.141 0.24,0 0.483,-0.076 0.732,-0.229 L 2.04,3.404 C 1.865,3.508 1.691,3.559 1.517,3.559 1.361,3.559 1.221,3.514 1.097,3.418 0.974,3.326 0.885,3.195 0.832,3.029 0.753,2.777 0.713,2.5 0.713,2.199 L 0.713,0 0,0 Z" /></g><g
           transform="translate(37.7207,6.4102)"
           id="g80"><path
             id="path82"
             style="fill:#110f0d;fill-opacity:1;fill-rule:nonzero;stroke:none"
             d="m 0,0 0,0.617 c -0.328,-0.474 -0.772,-0.711 -1.334,-0.711 -0.249,0 -0.48,0.047 -0.695,0.143 -0.215,0.094 -0.375,0.213 -0.48,0.357 -0.103,0.143 -0.177,0.319 -0.22,0.528 -0.028,0.138 -0.042,0.361 -0.042,0.664 l 0,2.603 0.711,0 0,-2.33 c 0,-0.371 0.016,-0.623 0.044,-0.752 0.045,-0.187 0.14,-0.334 0.286,-0.441 0.145,-0.106 0.325,-0.16 0.538,-0.16 0.213,0 0.415,0.054 0.602,0.164 0.187,0.111 0.319,0.257 0.398,0.447 0.078,0.189 0.117,0.463 0.117,0.82 l 0,2.252 0.713,0 L 0.638,0 0,0 Z" /></g><g
           transform="translate(39.1895,7.6641)"
           id="g84"><path
             id="path86"
             style="fill:#110f0d;fill-opacity:1;fill-rule:nonzero;stroke:none"
             d="m 0,0 0.705,0.111 c 0.04,-0.283 0.149,-0.498 0.331,-0.648 0.181,-0.15 0.434,-0.227 0.758,-0.227 0.328,0 0.57,0.067 0.728,0.202 0.16,0.132 0.239,0.289 0.239,0.466 0,0.162 -0.071,0.289 -0.21,0.381 C 2.452,0.348 2.21,0.428 1.822,0.525 1.299,0.658 0.937,0.771 0.735,0.867 0.533,0.965 0.38,1.098 0.275,1.268 0.172,1.437 0.119,1.625 0.119,1.832 c 0,0.186 0.043,0.359 0.129,0.52 C 0.334,2.51 0.451,2.643 0.599,2.75 0.709,2.832 0.86,2.9 1.052,2.955 1.243,3.012 1.448,3.041 1.667,3.041 1.997,3.041 2.287,2.994 2.537,2.9 2.786,2.805 2.971,2.676 3.089,2.514 3.208,2.352 3.29,2.135 3.335,1.863 L 2.638,1.768 C 2.605,1.984 2.514,2.152 2.362,2.273 2.211,2.396 1.996,2.455 1.719,2.455 1.392,2.455 1.157,2.402 1.018,2.293 0.879,2.186 0.809,2.061 0.809,1.914 0.809,1.822 0.837,1.74 0.896,1.666 0.954,1.588 1.045,1.525 1.169,1.475 1.24,1.449 1.449,1.389 1.798,1.293 2.302,1.158 2.654,1.049 2.854,0.963 3.053,0.877 3.209,0.752 3.322,0.59 3.437,0.426 3.493,0.223 3.493,-0.02 3.493,-0.258 3.424,-0.48 3.285,-0.689 3.146,-0.9 2.946,-1.062 2.686,-1.176 2.424,-1.291 2.128,-1.348 1.798,-1.348 1.252,-1.348 0.835,-1.234 0.549,-1.01 0.263,-0.781 0.079,-0.445 0,0" /></g><g
           transform="translate(45.0859,7.0469)"
           id="g88"><path
             id="path90"
             style="fill:#110f0d;fill-opacity:1;fill-rule:nonzero;stroke:none"
             d="m 0,0 0.103,-0.629 c -0.201,-0.041 -0.38,-0.062 -0.539,-0.062 -0.258,0 -0.459,0.041 -0.601,0.123 -0.143,0.08 -0.243,0.187 -0.301,0.32 -0.058,0.135 -0.088,0.414 -0.088,0.842 l 0,2.416 -0.522,0 0,0.554 0.522,0 0,1.04 0.709,0.427 0,-1.467 0.717,0 0,-0.554 -0.717,0 0,-2.455 c 0,-0.203 0.013,-0.334 0.038,-0.393 0.025,-0.058 0.067,-0.103 0.122,-0.139 0.057,-0.033 0.138,-0.05 0.245,-0.05 0.079,0 0.182,0.009 0.312,0.027" /></g><g
           transform="translate(46.3213,8.9141)"
           id="g92"><path
             id="path94"
             style="fill:#110f0d;fill-opacity:1;fill-rule:nonzero;stroke:none"
             d="M 0,0 2.349,0 C 2.316,0.354 2.227,0.617 2.079,0.795 1.853,1.068 1.558,1.205 1.196,1.205 0.868,1.205 0.593,1.096 0.37,0.879 0.147,0.66 0.024,0.367 0,0 m 2.341,-1.15 0.736,-0.092 c -0.116,-0.43 -0.332,-0.764 -0.645,-1 -0.314,-0.238 -0.716,-0.356 -1.204,-0.356 -0.615,0 -1.103,0.188 -1.463,0.567 -0.361,0.379 -0.541,0.908 -0.541,1.592 0,0.707 0.182,1.255 0.547,1.644 0.364,0.393 0.836,0.586 1.417,0.586 0.562,0 1.022,-0.189 1.378,-0.572 0.357,-0.383 0.535,-0.922 0.535,-1.615 0,-0.041 -10e-4,-0.106 -0.004,-0.19 l -3.136,0 c 0.026,-0.461 0.157,-0.814 0.392,-1.059 0.234,-0.246 0.527,-0.369 0.878,-0.369 0.262,0 0.485,0.069 0.67,0.207 0.185,0.137 0.331,0.356 0.44,0.657" /></g><g
           transform="translate(50.7686,8.5059)"
           id="g96"><path
             id="path98"
             style="fill:#110f0d;fill-opacity:1;fill-rule:nonzero;stroke:none"
             d="m 0,0 c 0,-0.537 0.113,-0.939 0.341,-1.205 0.226,-0.266 0.494,-0.4 0.804,-0.4 0.311,0 0.576,0.128 0.793,0.382 0.218,0.254 0.327,0.643 0.327,1.164 0,0.575 -0.111,0.996 -0.332,1.266 C 1.711,1.477 1.437,1.609 1.112,1.609 0.796,1.609 0.531,1.48 0.318,1.223 0.105,0.965 0,0.557 0,0 m 2.253,-2.096 0,0.53 C 1.986,-1.982 1.595,-2.189 1.077,-2.189 c -0.336,0 -0.643,0.091 -0.925,0.275 -0.281,0.185 -0.499,0.443 -0.653,0.773 -0.154,0.332 -0.231,0.711 -0.231,1.141 0,0.42 0.07,0.801 0.21,1.143 0.139,0.339 0.348,0.601 0.628,0.785 0.281,0.181 0.594,0.271 0.939,0.271 0.254,0 0.479,-0.053 0.678,-0.16 C 1.92,1.934 2.082,1.793 2.205,1.623 l 0,2.08 0.709,0 0,-5.799 -0.661,0 z" /></g><g
           transform="translate(55.6133,23.3213)"
           id="g100"><path
             id="path102"
             style="fill:#110f0d;fill-opacity:1;fill-rule:nonzero;stroke:none"
             d="m 0,0 0,1.55 -0.58,0 0,0.208 1.395,0 0,-0.208 -0.583,0 L 0.232,0 0,0 Z" /></g><g
           transform="translate(56.6592,23.3213)"
           id="g104"><path
             id="path106"
             style="fill:#110f0d;fill-opacity:1;fill-rule:nonzero;stroke:none"
             d="m 0,0 0,1.758 0.352,0 0.417,-1.244 C 0.807,0.397 0.835,0.311 0.852,0.253 0.873,0.317 0.903,0.412 0.946,0.535 l 0.421,1.223 0.314,0 0,-1.758 -0.224,0 0,1.472 L 0.945,0 0.735,0 0.226,1.498 0.226,0 0,0 Z" /></g></g></g></g></svg>