<?xml version="1.0" encoding="UTF-8" standalone="no"?>
<svg
   xmlns:dc="http://purl.org/dc/elements/1.1/"
   xmlns:cc="http://creativecommons.org/ns#"
   xmlns:rdf="http://www.w3.org/1999/02/22-rdf-syntax-ns#"
   xmlns:svg="http://www.w3.org/2000/svg"
   xmlns="http://www.w3.org/2000/svg"
   viewBox="0 0 75 39.6875"
   height="39.6875"
   width="75"
   xml:space="preserve"
   version="1.1"
   id="svg2"><metadata
     id="metadata8"><rdf:RDF><cc:Work
         rdf:about=""><dc:format>image/svg+xml</dc:format><dc:type
           rdf:resource="http://purl.org/dc/dcmitype/StillImage" /></cc:Work></rdf:RDF></metadata><defs
     id="defs6"><clipPath
       id="clipPath16"
       clipPathUnits="userSpaceOnUse"><path
         id="path18"
         d="m 0,31.75 60,0 L 60,0 0,0 0,31.75 Z" /></clipPath></defs><g
     transform="matrix(1.25,0,0,-1.25,0,39.6875)"
     id="g10"><g
       id="g12"><g
         clip-path="url(#clipPath16)"
         id="g14"><g
           transform="translate(19.5264,25.313)"
           id="g20"><path
             id="path22"
             style="fill:#ffffff;fill-opacity:1;fill-rule:nonzero;stroke:none"
             d="m 0,0 c -5.311,0 -9.631,-4.315 -9.631,-9.62 l 0,-0.42 c 0,-5.304 4.32,-9.62 9.631,-9.62 l 29.828,0 c 5.312,0 9.632,4.316 9.632,9.62 l 0,0.42 C 39.46,-4.315 35.14,0 29.828,0 L 0,0 Z" /></g><g
           transform="translate(20.0122,1.8496)"
           id="g24"><path
             id="path26"
             style="fill:#bbbbb9;fill-opacity:1;fill-rule:nonzero;stroke:none"
             d="m 0,0 c 0,-0.226 0.045,-0.392 0.135,-0.499 0.089,-0.107 0.198,-0.161 0.326,-0.161 0.124,0 0.227,0.05 0.308,0.148 0.083,0.1 0.124,0.261 0.124,0.486 0,0.211 -0.042,0.367 -0.127,0.468 C 0.681,0.544 0.577,0.596 0.453,0.596 0.323,0.596 0.215,0.545 0.129,0.445 0.043,0.346 0,0.197 0,0 m -0.524,0.97 0.494,0 0,-0.295 c 0.065,0.1 0.152,0.181 0.261,0.245 0.11,0.063 0.231,0.094 0.365,0.094 0.233,0 0.431,-0.091 0.593,-0.273 0.164,-0.183 0.245,-0.436 0.245,-0.763 0,-0.335 -0.082,-0.594 -0.247,-0.781 -0.163,-0.185 -0.362,-0.279 -0.595,-0.279 -0.111,0 -0.212,0.022 -0.302,0.066 -0.09,0.045 -0.184,0.12 -0.284,0.227 l 0,-1.01 -0.53,0 0,2.769 z" /></g><g
           transform="translate(22.2881,1.8164)"
           id="g28"><path
             id="path30"
             style="fill:#bbbbb9;fill-opacity:1;fill-rule:nonzero;stroke:none"
             d="m 0,0 c 0,-0.199 0.048,-0.352 0.142,-0.456 0.095,-0.106 0.212,-0.16 0.35,-0.16 0.139,0 0.255,0.054 0.349,0.16 0.094,0.104 0.14,0.258 0.14,0.46 0,0.196 -0.046,0.348 -0.14,0.452 C 0.747,0.562 0.631,0.614 0.492,0.614 0.354,0.614 0.237,0.562 0.142,0.456 0.048,0.352 0,0.199 0,0 m -0.544,0.027 c 0,0.178 0.043,0.348 0.13,0.512 0.087,0.166 0.21,0.291 0.37,0.379 0.159,0.087 0.337,0.129 0.534,0.129 0.303,0 0.552,-0.098 0.747,-0.295 0.194,-0.197 0.291,-0.445 0.291,-0.746 0,-0.304 -0.098,-0.555 -0.295,-0.754 -0.195,-0.2 -0.442,-0.301 -0.739,-0.301 -0.184,0 -0.36,0.042 -0.527,0.125 -0.167,0.083 -0.294,0.205 -0.381,0.366 -0.087,0.161 -0.13,0.356 -0.13,0.585" /></g><g
           transform="translate(24.6055,0.8135)"
           id="g32"><path
             id="path34"
             style="fill:#bbbbb9;fill-opacity:1;fill-rule:nonzero;stroke:none"
             d="m 0,0 -0.635,2.006 0.516,0 0.377,-1.315 0.345,1.315 0.512,0 0.335,-1.315 0.383,1.315 0.524,0 L 1.713,0 1.202,0 0.856,1.29 0.516,0 0,0 Z" /></g><g
           transform="translate(28.4341,1.9883)"
           id="g36"><path
             id="path38"
             style="fill:#bbbbb9;fill-opacity:1;fill-rule:nonzero;stroke:none"
             d="M 0,0 C -0.003,0.153 -0.043,0.271 -0.119,0.35 -0.194,0.43 -0.286,0.47 -0.395,0.47 -0.511,0.47 -0.606,0.427 -0.682,0.343 -0.757,0.26 -0.795,0.145 -0.793,0 L 0,0 Z M -0.03,-0.537 0.499,-0.624 C 0.432,-0.818 0.324,-0.967 0.177,-1.067 0.03,-1.17 -0.154,-1.221 -0.375,-1.221 c -0.348,0 -0.606,0.115 -0.773,0.343 -0.133,0.183 -0.2,0.412 -0.2,0.691 0,0.333 0.088,0.592 0.262,0.781 0.173,0.187 0.393,0.281 0.659,0.281 0.299,0 0.535,-0.098 0.707,-0.295 0.172,-0.197 0.255,-0.499 0.247,-0.905 l -1.33,0 c 0.004,-0.157 0.047,-0.279 0.129,-0.366 0.082,-0.088 0.184,-0.132 0.305,-0.132 0.084,0 0.154,0.022 0.21,0.068 0.057,0.045 0.1,0.117 0.129,0.218" /></g><g
           transform="translate(29.9028,0.8135)"
           id="g40"><path
             id="path42"
             style="fill:#bbbbb9;fill-opacity:1;fill-rule:nonzero;stroke:none"
             d="m 0,0 -0.53,0 0,2.006 0.492,0 0,-0.286 C 0.047,1.855 0.123,1.943 0.19,1.987 0.257,2.029 0.335,2.05 0.42,2.05 0.541,2.05 0.658,2.018 0.77,1.95 L 0.605,1.488 C 0.516,1.545 0.433,1.574 0.355,1.574 0.281,1.574 0.218,1.555 0.167,1.513 0.115,1.472 0.074,1.398 0.045,1.292 0.015,1.185 0,0.96 0,0.62 L 0,0 Z" /></g><g
           transform="translate(32.0938,1.9883)"
           id="g44"><path
             id="path46"
             style="fill:#bbbbb9;fill-opacity:1;fill-rule:nonzero;stroke:none"
             d="M 0,0 C -0.003,0.153 -0.043,0.271 -0.119,0.35 -0.194,0.43 -0.286,0.47 -0.395,0.47 -0.511,0.47 -0.605,0.427 -0.682,0.343 -0.757,0.26 -0.795,0.145 -0.793,0 L 0,0 Z M -0.029,-0.537 0.499,-0.624 C 0.432,-0.818 0.324,-0.967 0.177,-1.067 0.03,-1.17 -0.153,-1.221 -0.374,-1.221 c -0.349,0 -0.607,0.115 -0.774,0.343 -0.133,0.183 -0.199,0.412 -0.199,0.691 0,0.333 0.087,0.592 0.261,0.781 0.173,0.187 0.393,0.281 0.659,0.281 0.299,0 0.535,-0.098 0.707,-0.295 0.172,-0.197 0.255,-0.499 0.247,-0.905 l -1.33,0 c 0.004,-0.157 0.047,-0.279 0.129,-0.366 0.082,-0.088 0.184,-0.132 0.306,-0.132 0.083,0 0.153,0.022 0.21,0.068 0.056,0.045 0.099,0.117 0.129,0.218" /></g><g
           transform="translate(33.4766,1.8604)"
           id="g48"><path
             id="path50"
             style="fill:#bbbbb9;fill-opacity:1;fill-rule:nonzero;stroke:none"
             d="m 0,0 c 0,-0.215 0.03,-0.37 0.089,-0.465 0.087,-0.139 0.206,-0.208 0.359,-0.208 0.122,0 0.227,0.053 0.313,0.156 0.085,0.104 0.129,0.258 0.129,0.465 0,0.231 -0.042,0.397 -0.125,0.497 C 0.682,0.547 0.574,0.598 0.444,0.598 0.319,0.598 0.213,0.547 0.128,0.447 0.043,0.348 0,0.198 0,0 m 1.418,-1.047 -0.493,0 0,0.295 C 0.843,-0.866 0.747,-0.952 0.635,-1.008 0.522,-1.063 0.411,-1.093 0.297,-1.093 c -0.231,0 -0.428,0.094 -0.592,0.28 -0.165,0.186 -0.247,0.443 -0.247,0.776 0,0.341 0.08,0.598 0.24,0.775 0.159,0.177 0.363,0.265 0.607,0.265 0.224,0 0.418,-0.093 0.582,-0.278 l 0,0.996 0.531,0 0,-2.768 z" /></g><g
           transform="translate(36.998,1.8604)"
           id="g52"><path
             id="path54"
             style="fill:#bbbbb9;fill-opacity:1;fill-rule:nonzero;stroke:none"
             d="m 0,0 c 0,-0.208 0.033,-0.362 0.099,-0.461 0.092,-0.142 0.213,-0.212 0.366,-0.212 0.117,0 0.217,0.051 0.301,0.151 0.082,0.1 0.123,0.256 0.123,0.472 0,0.23 -0.041,0.395 -0.124,0.495 C 0.681,0.547 0.574,0.598 0.444,0.598 0.317,0.598 0.212,0.548 0.127,0.449 0.043,0.351 0,0.2 0,0 m -0.526,-1.047 0,2.768 0.53,0 0,-0.996 C 0.168,0.91 0.362,1.003 0.586,1.003 0.83,1.003 1.033,0.915 1.193,0.738 1.354,0.561 1.434,0.309 1.434,-0.023 1.434,-0.366 1.352,-0.629 1.187,-0.814 1.025,-0.999 0.826,-1.093 0.594,-1.093 c -0.115,0 -0.228,0.03 -0.339,0.087 -0.111,0.057 -0.207,0.143 -0.288,0.254 l 0,-0.295 -0.493,0 z" /></g><g
           transform="translate(38.6074,2.8193)"
           id="g56"><path
             id="path58"
             style="fill:#bbbbb9;fill-opacity:1;fill-rule:nonzero;stroke:none"
             d="M 0,0 0.565,0 1.046,-1.424 1.514,0 2.064,0 1.355,-1.931 1.229,-2.279 C 1.183,-2.396 1.138,-2.486 1.095,-2.547 1.053,-2.608 1.005,-2.659 0.949,-2.698 0.896,-2.736 0.828,-2.767 0.748,-2.787 0.668,-2.809 0.577,-2.819 0.477,-2.819 c -0.103,0 -0.203,0.01 -0.301,0.032 l -0.047,0.416 c 0.083,-0.017 0.157,-0.025 0.225,-0.025 0.123,0 0.214,0.036 0.274,0.109 0.059,0.072 0.103,0.163 0.136,0.275 L 0,0 Z" /></g><g
           transform="translate(42.7979,0.8135)"
           id="g60"><path
             id="path62"
             style="fill:#911763;fill-opacity:1;fill-rule:nonzero;stroke:none"
             d="m 0,0 -0.99,2.768 0.606,0 0.701,-2.049 0.679,2.049 0.593,0 L 0.598,0 0,0 Z" /></g><g
           transform="translate(45.6475,1.9883)"
           id="g64"><path
             id="path66"
             style="fill:#911763;fill-opacity:1;fill-rule:nonzero;stroke:none"
             d="M 0,0 C -0.003,0.153 -0.043,0.271 -0.119,0.35 -0.194,0.43 -0.286,0.47 -0.396,0.47 -0.511,0.47 -0.606,0.427 -0.683,0.343 -0.758,0.26 -0.795,0.145 -0.793,0 L 0,0 Z M -0.03,-0.537 0.499,-0.624 C 0.432,-0.818 0.323,-0.967 0.177,-1.067 0.03,-1.17 -0.153,-1.221 -0.374,-1.221 c -0.349,0 -0.607,0.115 -0.774,0.343 -0.133,0.183 -0.2,0.412 -0.2,0.691 0,0.333 0.087,0.592 0.262,0.781 0.173,0.187 0.393,0.281 0.659,0.281 0.299,0 0.534,-0.098 0.707,-0.295 0.172,-0.197 0.255,-0.499 0.247,-0.905 l -1.33,0 c 0.004,-0.157 0.046,-0.279 0.129,-0.366 0.082,-0.088 0.184,-0.132 0.306,-0.132 0.083,0 0.153,0.022 0.21,0.068 0.055,0.045 0.099,0.117 0.128,0.218" /></g><g
           transform="translate(47.1162,0.8135)"
           id="g68"><path
             id="path70"
             style="fill:#911763;fill-opacity:1;fill-rule:nonzero;stroke:none"
             d="m 0,0 -0.53,0 0,2.006 0.493,0 0,-0.286 C 0.047,1.855 0.123,1.943 0.19,1.987 0.258,2.029 0.335,2.05 0.42,2.05 0.541,2.05 0.657,2.018 0.77,1.95 L 0.605,1.488 C 0.516,1.545 0.433,1.574 0.355,1.574 0.281,1.574 0.218,1.555 0.167,1.513 0.115,1.472 0.074,1.398 0.045,1.292 0.015,1.185 0,0.96 0,0.62 L 0,0 Z" /></g><path
           id="path72"
           style="fill:#911763;fill-opacity:1;fill-rule:nonzero;stroke:none"
           d="m 48.114,2.819 0.53,0 0,-2.006 -0.53,0 0,2.006 z m 0,0.762 0.53,0 0,-0.489 -0.53,0 0,0.489 z" /><g
           transform="translate(49.0518,1.7148)"
           id="g74"><path
             id="path76"
             style="fill:#911763;fill-opacity:1;fill-rule:nonzero;stroke:none"
             d="m 0,0 0.545,0.052 c 0.032,-0.182 0.099,-0.317 0.199,-0.401 0.101,-0.087 0.235,-0.129 0.405,-0.129 0.18,0 0.316,0.038 0.409,0.114 0.09,0.077 0.136,0.165 0.136,0.266 0,0.067 -0.019,0.122 -0.057,0.168 C 1.598,0.116 1.53,0.156 1.435,0.19 1.369,0.212 1.22,0.253 0.987,0.312 0.687,0.386 0.477,0.477 0.355,0.585 0.186,0.737 0.1,0.922 0.1,1.142 c 0,0.14 0.041,0.272 0.121,0.395 0.08,0.123 0.195,0.216 0.345,0.28 0.151,0.065 0.332,0.097 0.545,0.097 0.348,0 0.611,-0.076 0.785,-0.228 C 2.073,1.533 2.165,1.33 2.174,1.075 L 1.614,1.051 C 1.591,1.193 1.539,1.296 1.46,1.357 1.382,1.419 1.264,1.451 1.105,1.451 0.943,1.451 0.815,1.417 0.725,1.352 0.665,1.309 0.636,1.252 0.636,1.18 0.636,1.114 0.663,1.058 0.719,1.012 0.789,0.952 0.96,0.891 1.232,0.826 1.505,0.762 1.706,0.695 1.836,0.627 1.967,0.558 2.069,0.465 2.143,0.346 2.217,0.228 2.253,0.08 2.253,-0.096 2.253,-0.254 2.21,-0.401 2.12,-0.54 2.032,-0.679 1.907,-0.781 1.746,-0.849 1.586,-0.917 1.385,-0.951 1.144,-0.951 c -0.35,0 -0.62,0.081 -0.807,0.244 C 0.148,-0.546 0.037,-0.31 0,0" /></g><path
           id="path78"
           style="fill:#911763;fill-opacity:1;fill-rule:nonzero;stroke:none"
           d="m 51.772,2.819 0.53,0 0,-2.006 -0.53,0 0,2.006 z m 0,0.762 0.53,0 0,-0.489 -0.53,0 0,0.489 z" /><g
           transform="translate(53.2725,1.8584)"
           id="g80"><path
             id="path82"
             style="fill:#911763;fill-opacity:1;fill-rule:nonzero;stroke:none"
             d="m 0,0 c 0,-0.213 0.041,-0.37 0.123,-0.468 0.083,-0.098 0.185,-0.148 0.306,-0.148 0.13,0 0.239,0.052 0.329,0.152 0.089,0.101 0.134,0.251 0.134,0.449 0,0.208 -0.043,0.363 -0.128,0.463 C 0.678,0.549 0.569,0.6 0.438,0.6 0.312,0.6 0.206,0.55 0.123,0.451 0.041,0.353 0,0.202 0,0 M -0.475,-1.178 0.132,-1.25 c 0.01,-0.07 0.034,-0.118 0.07,-0.146 0.05,-0.037 0.13,-0.056 0.238,-0.056 0.139,0 0.243,0.021 0.312,0.062 0.047,0.029 0.082,0.073 0.105,0.134 0.018,0.044 0.026,0.125 0.026,0.242 l 0,0.294 c -0.158,-0.217 -0.36,-0.325 -0.602,-0.325 -0.269,0 -0.482,0.114 -0.64,0.343 -0.123,0.18 -0.186,0.402 -0.186,0.671 0,0.337 0.081,0.593 0.243,0.77 0.162,0.178 0.364,0.266 0.605,0.266 0.247,0 0.452,-0.109 0.613,-0.326 l 0,0.282 0.497,0 0,-1.8 C 1.413,-1.075 1.395,-1.252 1.354,-1.368 1.316,-1.486 1.261,-1.578 1.19,-1.645 1.12,-1.712 1.026,-1.764 0.908,-1.802 0.79,-1.84 0.641,-1.858 0.461,-1.858 c -0.341,0 -0.581,0.058 -0.724,0.174 -0.142,0.117 -0.214,0.265 -0.214,0.443 0,0.017 0.001,0.039 0.002,0.063" /></g><g
           transform="translate(57.0381,0.8135)"
           id="g84"><path
             id="path86"
             style="fill:#911763;fill-opacity:1;fill-rule:nonzero;stroke:none"
             d="m 0,0 -0.531,0 0,1.023 c 0,0.217 -0.012,0.357 -0.034,0.421 -0.023,0.063 -0.06,0.113 -0.112,0.148 -0.05,0.035 -0.111,0.053 -0.183,0.053 -0.092,0 -0.175,-0.026 -0.248,-0.076 -0.074,-0.05 -0.122,-0.117 -0.151,-0.2 -0.026,-0.083 -0.04,-0.236 -0.04,-0.461 l 0,-0.908 -0.531,0 0,2.006 0.493,0 0,-0.295 c 0.176,0.226 0.397,0.339 0.661,0.339 0.118,0 0.225,-0.021 0.322,-0.062 0.097,-0.043 0.17,-0.097 0.22,-0.163 C -0.083,1.76 -0.049,1.686 -0.03,1.603 -0.01,1.52 0,1.401 0,1.246 L 0,0 Z" /></g><g
           transform="translate(19.5264,25.313)"
           id="g88"><path
             id="path90"
             style="fill:#bbbbb9;fill-opacity:1;fill-rule:nonzero;stroke:none"
             d="m 0,0 c -5.311,0 -9.631,-4.315 -9.631,-9.62 l 0,-0.42 c 0,-5.304 4.32,-9.62 9.631,-9.62 l 29.828,0 c 5.312,0 9.632,4.316 9.632,9.62 l 0,0.42 C 39.46,-4.315 35.14,0 29.828,0 L 0,0 Z m 29.828,-20.671 -29.828,0 c -5.87,0 -10.645,4.769 -10.645,10.631 l 0,0.42 c 0,5.863 4.775,10.633 10.645,10.633 l 29.828,0 c 5.87,0 10.646,-4.77 10.646,-10.633 l 0,-0.42 c 0,-5.862 -4.776,-10.631 -10.646,-10.631" /></g><g
           transform="translate(12.6431,25.1265)"
           id="g92"><path
             id="path94"
             style="fill:#ffffff;fill-opacity:1;fill-rule:nonzero;stroke:none"
             d="M 0,0 C 5.138,0 9.311,-4.169 9.311,-9.301 9.311,-14.433 5.138,-18.6 0,-18.6 c -5.137,0 -9.272,4.167 -9.272,9.299 C -9.272,-4.169 -5.137,0 0,0" /></g><path
           id="path96"
           style="fill:#f9ae0c;fill-opacity:1;fill-rule:nonzero;stroke:none"
           d="m 24.153,28.236 0.879,0 0,0.878 -0.879,0 0,-0.878 z m 2.639,0.878 0.879,0 0,0.879 -0.879,0 0,-0.879 z m 0,1.757 0.879,0 0,0.879 -0.879,0 0,-0.879 z" /><g
           transform="translate(12.6445,24.4287)"
           id="g98"><path
             id="path100"
             style="fill:#f9ae0c;fill-opacity:1;fill-rule:nonzero;stroke:none"
             d="m 0,0 c 4.753,0 8.612,-3.856 8.612,-8.603 0,-4.748 -3.859,-8.602 -8.612,-8.602 -4.752,0 -8.577,3.854 -8.577,8.602 C -8.577,-3.856 -4.752,0 0,0 m 0,4.026 c -6.985,0 -12.645,-5.652 -12.645,-12.629 0,-6.974 5.66,-12.629 12.645,-12.629 6.985,0 12.644,5.655 12.644,12.629 C 12.644,-1.626 6.985,4.026 0,4.026" /></g><g
           transform="translate(16.2368,22.0864)"
           id="g102"><path
             id="path104"
             style="fill:#110f0d;fill-opacity:1;fill-rule:nonzero;stroke:none"
             d="m 0,0 c -2.297,-2.866 -2.875,-4.124 -3.791,-6.442 -1.037,2.095 -2.275,3.544 -4.419,4.502 -0.406,0.103 -0.606,0.162 -0.88,-0.221 -0.274,-0.382 -0.107,-0.728 0.22,-1.134 0.859,-1.065 1.823,-2.05 2.492,-3.258 0.784,-1.416 1.76,-3.749 2.089,-4.356 0.262,-0.483 0.894,-0.696 1.137,-0.696 1.297,0.152 1.298,0.813 1.545,1.953 0.401,1.875 0.92,3.809 3.366,6.137 L 1.759,0 0,0 Z" /></g><path
           id="path106"
           style="fill:#110f0d;fill-opacity:1;fill-rule:nonzero;stroke:none"
           d="m 22.393,28.236 -0.879,0 0,-0.879 0.879,0 0,0.879 z m 0,-1.757 0.88,0 0,0.877 -0.88,0 0,-0.877 z m 1.76,0 -0.88,0 0,-0.878 -0.88,0 0,0.878 -1.759,0 0,-0.878 -0.88,0 0,-0.879 0.88,0 0,-0.878 -0.88,0 0,0.878 -0.879,0 0,-0.878 -0.879,0 0,-0.879 -0.88,0 0,-3.515 1.759,0 0,0.88 0.879,0 0,0.878 0.88,0 0,0.878 -0.88,0 0,0.879 0.88,0 0,-0.879 0.88,0 0,0.879 0.879,0 0,0.879 0.88,0 0,0.878 0.88,0 0,1.757 z m 0.879,0.878 0.881,0 0,0.879 -0.881,0 0,-0.879 z m -0.879,-0.878 0.879,0 0,0.877 -0.879,0 0,-0.877 z m 0,2.635 -0.88,0 0,-1.757 0.88,0 0,1.757 z m 1.761,0.879 -1.76,0 0,-0.879 1.76,0 0,0.879 z m 0,0 0.879,0 0,0.878 -0.879,0 0,-0.878 z" /><g
           transform="translate(28.8667,16.6938)"
           id="g108"><path
             id="path110"
             style="fill:#110f0d;fill-opacity:1;fill-rule:nonzero;stroke:none"
             d="m 0,0 -1.793,5.011 1.098,0 1.27,-3.709 1.229,3.709 1.073,0 L 1.081,0 0,0 Z" /></g><g
           transform="translate(34.0264,18.8198)"
           id="g112"><path
             id="path114"
             style="fill:#110f0d;fill-opacity:1;fill-rule:nonzero;stroke:none"
             d="m 0,0 c -0.007,0.277 -0.078,0.489 -0.215,0.633 -0.138,0.146 -0.304,0.218 -0.5,0.218 -0.21,0 -0.383,-0.076 -0.52,-0.229 C -1.372,0.47 -1.439,0.262 -1.437,0 L 0,0 Z m -0.055,-0.971 0.958,-0.16 C 0.781,-1.482 0.586,-1.75 0.32,-1.933 0.055,-2.116 -0.278,-2.208 -0.678,-2.208 c -0.631,0 -1.099,0.207 -1.402,0.619 -0.239,0.33 -0.359,0.747 -0.359,1.251 0,0.601 0.157,1.072 0.472,1.413 0.315,0.341 0.712,0.511 1.194,0.511 0.541,0 0.966,-0.178 1.28,-0.535 0.312,-0.357 0.462,-0.903 0.448,-1.639 l -2.409,0 c 0.007,-0.286 0.084,-0.507 0.232,-0.665 0.149,-0.158 0.333,-0.238 0.555,-0.238 0.15,0 0.276,0.041 0.38,0.123 0.102,0.082 0.18,0.215 0.232,0.397" /></g><g
           transform="translate(36.6865,16.6938)"
           id="g116"><path
             id="path118"
             style="fill:#110f0d;fill-opacity:1;fill-rule:nonzero;stroke:none"
             d="m 0,0 -0.962,0 0,3.629 0.894,0 0,-0.516 c 0.152,0.245 0.29,0.405 0.411,0.483 0.123,0.077 0.261,0.116 0.416,0.116 0.22,0 0.43,-0.061 0.634,-0.181 L 1.095,2.693 C 0.934,2.798 0.782,2.851 0.644,2.851 0.509,2.851 0.395,2.813 0.301,2.74 0.208,2.666 0.134,2.531 0.08,2.337 0.026,2.145 0,1.738 0,1.121 L 0,0 Z" /></g><path
           id="path120"
           style="fill:#110f0d;fill-opacity:1;fill-rule:nonzero;stroke:none"
           d="m 38.493,20.323 0.962,0 0,-3.629 -0.962,0 0,3.629 z m 0,1.382 0.962,0 0,-0.889 -0.962,0 0,0.889 z" /><g
           transform="translate(40.1016,17.729)"
           id="g122"><path
             id="path124"
             style="fill:#110f0d;fill-opacity:1;fill-rule:nonzero;stroke:none"
             d="m 0,0 0.965,0.147 c 0.041,-0.187 0.124,-0.328 0.25,-0.425 0.126,-0.097 0.301,-0.145 0.526,-0.145 0.25,0 0.437,0.045 0.562,0.136 0.085,0.064 0.127,0.15 0.127,0.257 0,0.072 -0.024,0.133 -0.069,0.181 C 2.313,0.197 2.206,0.238 2.039,0.277 1.265,0.448 0.772,0.604 0.564,0.746 0.277,0.941 0.134,1.214 0.134,1.562 0.134,1.877 0.258,2.141 0.507,2.355 0.755,2.57 1.141,2.677 1.663,2.677 2.16,2.677 2.53,2.595 2.771,2.435 3.014,2.272 3.18,2.033 3.271,1.716 L 2.365,1.548 C 2.325,1.689 2.252,1.798 2.145,1.874 2.035,1.949 1.881,1.987 1.68,1.987 1.427,1.987 1.245,1.951 1.137,1.881 1.063,1.83 1.026,1.765 1.026,1.686 1.026,1.617 1.059,1.56 1.123,1.511 1.209,1.448 1.509,1.357 2.021,1.241 2.532,1.125 2.891,0.983 3.094,0.814 3.295,0.643 3.395,0.405 3.395,0.1 c 0,-0.333 -0.14,-0.619 -0.418,-0.859 -0.279,-0.239 -0.69,-0.359 -1.236,-0.359 -0.495,0 -0.886,0.1 -1.175,0.301 C 0.277,-0.616 0.089,-0.344 0,0" /></g><path
           id="path126"
           style="fill:#110f0d;fill-opacity:1;fill-rule:nonzero;stroke:none"
           d="m 44.338,20.323 0.962,0 0,-3.629 -0.962,0 0,3.629 z m 0,1.382 0.962,0 0,-0.889 -0.962,0 0,0.889 z" /><g
           transform="translate(47.0547,18.584)"
           id="g128"><path
             id="path130"
             style="fill:#110f0d;fill-opacity:1;fill-rule:nonzero;stroke:none"
             d="m 0,0 c 0,-0.386 0.074,-0.667 0.224,-0.846 0.15,-0.179 0.334,-0.268 0.553,-0.268 0.235,0 0.433,0.091 0.595,0.275 0.163,0.183 0.244,0.455 0.244,0.814 0,0.378 -0.078,0.656 -0.233,0.838 C 1.228,0.996 1.032,1.087 0.794,1.087 0.563,1.087 0.374,0.997 0.224,0.819 0.074,0.64 0,0.367 0,0 M -0.859,-2.129 0.24,-2.263 c 0.018,-0.128 0.061,-0.216 0.126,-0.263 0.092,-0.068 0.236,-0.103 0.431,-0.103 0.252,0 0.439,0.038 0.565,0.113 0.084,0.05 0.149,0.131 0.192,0.243 0.029,0.08 0.044,0.226 0.044,0.441 l 0,0.53 C 1.312,-1.694 0.947,-1.89 0.51,-1.89 c -0.488,0 -0.875,0.206 -1.16,0.619 -0.224,0.325 -0.335,0.73 -0.335,1.216 0,0.609 0.146,1.074 0.44,1.395 0.293,0.321 0.657,0.482 1.093,0.482 0.449,0 0.819,-0.197 1.111,-0.592 l 0,0.509 0.902,0 0,-3.257 C 2.561,-1.946 2.524,-2.266 2.453,-2.479 2.383,-2.69 2.284,-2.856 2.156,-2.977 2.028,-3.098 1.857,-3.192 1.645,-3.261 1.431,-3.329 1.161,-3.363 0.835,-3.363 c -0.616,0 -1.053,0.105 -1.311,0.316 -0.257,0.21 -0.386,0.478 -0.386,0.801 0,0.033 0.001,0.071 0.003,0.117" /></g><g
           transform="translate(53.8711,16.6938)"
           id="g132"><path
             id="path134"
             style="fill:#110f0d;fill-opacity:1;fill-rule:nonzero;stroke:none"
             d="m 0,0 -0.962,0 0,1.853 c 0,0.392 -0.02,0.645 -0.06,0.76 -0.042,0.115 -0.109,0.205 -0.201,0.268 -0.092,0.064 -0.204,0.096 -0.334,0.096 -0.167,0 -0.316,-0.045 -0.448,-0.136 C -2.138,2.749 -2.229,2.628 -2.277,2.478 -2.326,2.327 -2.351,2.05 -2.351,1.644 l 0,-1.644 -0.962,0 0,3.629 0.893,0 0,-0.532 c 0.318,0.41 0.717,0.615 1.198,0.615 0.213,0 0.408,-0.039 0.582,-0.115 C -0.465,3.521 -0.331,3.424 -0.241,3.305 -0.15,3.187 -0.088,3.052 -0.053,2.902 -0.017,2.751 0,2.536 0,2.255 L 0,0 Z" /></g><g
           transform="translate(29.1792,9.6064)"
           id="g136"><path
             id="path138"
             style="fill:#110f0d;fill-opacity:1;fill-rule:nonzero;stroke:none"
             d="m 0,0 0,5.113 -1.913,0 0,0.685 4.602,0 0,-0.685 -1.92,0 L 0.769,0 0,0 Z" /></g><g
           transform="translate(32.2559,9.6064)"
           id="g140"><path
             id="path142"
             style="fill:#110f0d;fill-opacity:1;fill-rule:nonzero;stroke:none"
             d="m 0,0 0,4.2 0.642,0 0,-0.637 c 0.163,0.298 0.315,0.495 0.453,0.59 0.138,0.094 0.291,0.142 0.458,0.142 0.24,0 0.483,-0.076 0.732,-0.23 L 2.04,3.404 C 1.865,3.508 1.691,3.559 1.517,3.559 1.361,3.559 1.221,3.513 1.097,3.418 0.974,3.325 0.885,3.195 0.832,3.029 0.753,2.776 0.713,2.5 0.713,2.199 L 0.713,0 0,0 Z" /></g><g
           transform="translate(37.7207,9.6064)"
           id="g144"><path
             id="path146"
             style="fill:#110f0d;fill-opacity:1;fill-rule:nonzero;stroke:none"
             d="m 0,0 0,0.617 c -0.328,-0.475 -0.772,-0.712 -1.334,-0.712 -0.249,0 -0.48,0.047 -0.695,0.143 -0.215,0.094 -0.375,0.214 -0.48,0.357 -0.103,0.144 -0.177,0.32 -0.22,0.528 -0.028,0.139 -0.042,0.361 -0.042,0.665 l 0,2.602 0.711,0 0,-2.33 c 0,-0.371 0.016,-0.622 0.044,-0.751 0.045,-0.187 0.14,-0.334 0.286,-0.441 0.145,-0.107 0.325,-0.16 0.538,-0.16 0.213,0 0.415,0.054 0.602,0.164 0.187,0.11 0.319,0.257 0.398,0.447 0.078,0.188 0.117,0.462 0.117,0.82 l 0,2.251 0.713,0 0,-4.2 L 0,0 Z" /></g><g
           transform="translate(39.1895,10.8594)"
           id="g148"><path
             id="path150"
             style="fill:#110f0d;fill-opacity:1;fill-rule:nonzero;stroke:none"
             d="m 0,0 0.705,0.111 c 0.04,-0.282 0.149,-0.498 0.331,-0.648 0.181,-0.15 0.434,-0.226 0.758,-0.226 0.328,0 0.57,0.067 0.728,0.201 0.16,0.132 0.239,0.289 0.239,0.467 0,0.161 -0.071,0.288 -0.21,0.38 C 2.452,0.349 2.21,0.429 1.822,0.526 1.299,0.658 0.937,0.772 0.735,0.868 0.533,0.965 0.38,1.099 0.275,1.269 0.172,1.437 0.119,1.626 0.119,1.832 c 0,0.187 0.043,0.36 0.129,0.52 0.086,0.159 0.203,0.292 0.351,0.398 0.11,0.082 0.261,0.151 0.453,0.206 0.191,0.057 0.396,0.086 0.615,0.086 0.33,0 0.62,-0.048 0.87,-0.142 C 2.786,2.805 2.971,2.677 3.089,2.514 3.208,2.352 3.29,2.135 3.335,1.863 L 2.638,1.769 C 2.605,1.985 2.514,2.152 2.362,2.274 2.211,2.396 1.996,2.456 1.719,2.456 1.392,2.456 1.157,2.402 1.018,2.294 0.879,2.187 0.809,2.061 0.809,1.915 0.809,1.823 0.837,1.74 0.896,1.666 0.954,1.589 1.045,1.526 1.169,1.476 1.24,1.449 1.449,1.389 1.798,1.294 2.302,1.159 2.654,1.05 2.854,0.964 3.053,0.878 3.209,0.753 3.322,0.59 3.437,0.427 3.493,0.224 3.493,-0.02 3.493,-0.257 3.424,-0.479 3.285,-0.689 3.146,-0.899 2.946,-1.062 2.686,-1.176 2.424,-1.291 2.128,-1.348 1.798,-1.348 1.252,-1.348 0.835,-1.234 0.549,-1.009 0.263,-0.781 0.079,-0.445 0,0" /></g><g
           transform="translate(45.0859,10.2432)"
           id="g152"><path
             id="path154"
             style="fill:#110f0d;fill-opacity:1;fill-rule:nonzero;stroke:none"
             d="m 0,0 0.103,-0.629 c -0.201,-0.042 -0.38,-0.063 -0.539,-0.063 -0.258,0 -0.459,0.041 -0.601,0.123 -0.143,0.081 -0.243,0.188 -0.301,0.321 -0.058,0.134 -0.088,0.414 -0.088,0.841 l 0,2.417 -0.522,0 0,0.553 0.522,0 0,1.041 0.709,0.426 0,-1.467 0.717,0 0,-0.553 -0.717,0 0,-2.456 c 0,-0.203 0.013,-0.333 0.038,-0.392 0.025,-0.058 0.067,-0.103 0.122,-0.139 0.057,-0.034 0.138,-0.051 0.245,-0.051 0.079,0 0.182,0.009 0.312,0.028" /></g><g
           transform="translate(46.3213,12.1104)"
           id="g156"><path
             id="path158"
             style="fill:#110f0d;fill-opacity:1;fill-rule:nonzero;stroke:none"
             d="M 0,0 2.349,0 C 2.316,0.353 2.227,0.617 2.079,0.795 1.853,1.068 1.558,1.205 1.196,1.205 0.868,1.205 0.593,1.096 0.37,0.878 0.147,0.659 0.024,0.366 0,0 M 2.341,-1.151 3.077,-1.242 C 2.961,-1.672 2.745,-2.006 2.432,-2.243 2.118,-2.48 1.716,-2.599 1.228,-2.599 c -0.615,0 -1.103,0.188 -1.463,0.568 -0.361,0.379 -0.541,0.908 -0.541,1.592 0,0.706 0.182,1.254 0.547,1.644 0.364,0.392 0.836,0.586 1.417,0.586 0.562,0 1.022,-0.19 1.378,-0.573 0.357,-0.383 0.535,-0.921 0.535,-1.614 0,-0.042 -10e-4,-0.106 -0.004,-0.19 l -3.136,0 c 0.026,-0.462 0.157,-0.815 0.392,-1.06 0.234,-0.245 0.527,-0.368 0.878,-0.368 0.262,0 0.485,0.069 0.67,0.206 0.185,0.138 0.331,0.356 0.44,0.657" /></g><g
           transform="translate(50.7686,11.7021)"
           id="g160"><path
             id="path162"
             style="fill:#110f0d;fill-opacity:1;fill-rule:nonzero;stroke:none"
             d="m 0,0 c 0,-0.537 0.113,-0.94 0.341,-1.206 0.226,-0.266 0.494,-0.399 0.804,-0.399 0.311,0 0.576,0.127 0.793,0.381 0.218,0.254 0.327,0.643 0.327,1.164 0,0.575 -0.111,0.997 -0.332,1.267 C 1.711,1.476 1.437,1.609 1.112,1.609 0.796,1.609 0.531,1.48 0.318,1.223 0.105,0.964 0,0.557 0,0 m 2.253,-2.096 0,0.53 C 1.986,-1.982 1.595,-2.19 1.077,-2.19 c -0.336,0 -0.643,0.091 -0.925,0.276 -0.281,0.185 -0.499,0.442 -0.653,0.772 -0.154,0.332 -0.231,0.712 -0.231,1.142 0,0.42 0.07,0.8 0.21,1.142 0.139,0.34 0.348,0.602 0.628,0.785 0.281,0.181 0.594,0.272 0.939,0.272 0.254,0 0.479,-0.053 0.678,-0.16 C 1.92,1.933 2.082,1.793 2.205,1.622 l 0,2.08 0.709,0 0,-5.798 -0.661,0 z" /></g><g
           transform="translate(55.6133,26.5171)"
           id="g164"><path
             id="path166"
             style="fill:#110f0d;fill-opacity:1;fill-rule:nonzero;stroke:none"
             d="m 0,0 0,1.55 -0.58,0 0,0.208 1.395,0 0,-0.208 -0.583,0 L 0.232,0 0,0 Z" /></g><g
           transform="translate(56.6592,26.5171)"
           id="g168"><path
             id="path170"
             style="fill:#110f0d;fill-opacity:1;fill-rule:nonzero;stroke:none"
             d="m 0,0 0,1.758 0.352,0 0.417,-1.244 C 0.807,0.397 0.835,0.311 0.852,0.253 0.873,0.317 0.903,0.412 0.946,0.535 l 0.421,1.223 0.314,0 0,-1.758 -0.224,0 0,1.472 L 0.945,0 0.735,0 0.226,1.498 0.226,0 0,0 Z" /></g></g></g></g></svg>